<svg width="32" height="32" viewBox="0 0 32 32" fill="none" xmlns="http://www.w3.org/2000/svg">
<g clip-path="url(#clip0)">
<path d="M27.3367 4.65026C24.3285 1.65324 20.3285 0.00182855 16.0668 0C7.28491 0 0.13819 7.113 0.134675 15.8559C0.133651 18.6506 0.867096 21.3786 2.26118 23.7833L0.000915527 32L8.44673 29.7951C10.7737 31.0586 13.3937 31.7244 16.06 31.7255H16.0667H16.0668C24.8473 31.7255 31.9951 24.6112 31.9988 15.8687C32.0003 11.6315 30.3445 7.64748 27.3367 4.65026ZM16.0668 29.0473H16.0617C13.6851 29.0461 11.3546 28.4108 9.32181 27.2099L8.83804 26.9244L3.82611 28.2327L5.16423 23.3694L4.84904 22.8708C3.52339 20.7722 2.82355 18.3471 2.82455 15.8569C2.82746 8.5901 8.76754 2.67822 16.0718 2.67822C19.609 2.67968 22.9335 4.05235 25.4338 6.54338C27.9339 9.03438 29.3098 12.3458 29.3087 15.8676C29.3056 23.1347 23.3654 29.0473 16.0668 29.0473Z" fill="#E0E0E0"/>
<path d="M0.732574 31.0884L2.88959 23.247C1.55885 20.9521 0.85904 18.3485 0.859879 15.682C0.863369 7.33866 7.68369 0.550781 16.0637 0.550781C20.131 0.55261 23.9483 2.1285 26.8185 4.98869C29.6892 7.84885 31.2692 11.6506 31.2676 15.6938C31.2641 24.0374 24.4433 30.8259 16.0643 30.8259C16.0637 30.8259 16.0648 30.8259 16.0643 30.8259H16.0576C13.5131 30.8251 11.013 30.1892 8.79244 28.9843L0.732574 31.0884Z" fill="url(#paint0_linear)"/>
<path fill-rule="evenodd" clip-rule="evenodd" d="M12.1294 9.12424C11.8346 8.47179 11.5243 8.45873 11.2438 8.44731C11.0145 8.43752 10.7519 8.43812 10.4897 8.43812C10.2273 8.43812 9.80099 8.53628 9.44043 8.92832C9.07966 9.32037 8.06296 10.2681 8.06296 12.1956C8.06296 14.1234 9.47323 15.986 9.6698 16.2476C9.86658 16.5088 12.3922 20.5908 16.3919 22.1612C19.7161 23.4663 20.3926 23.2067 21.1141 23.1414C21.8356 23.0761 23.4423 22.1939 23.7702 21.279C24.0982 20.3643 24.0982 19.5802 23.9998 19.4163C23.9014 19.2531 23.639 19.1551 23.2455 18.9592C22.8519 18.7633 20.9173 17.8153 20.5565 17.6847C20.1958 17.5541 19.9334 17.4888 19.671 17.8811C19.4086 18.2729 18.6549 19.1551 18.4253 19.4163C18.1958 19.6781 17.9662 19.7108 17.5726 19.5149C17.1791 19.3184 15.9117 18.9051 14.4081 17.5704C13.2383 16.5321 12.4485 15.2496 12.2189 14.8574C11.9894 14.4656 12.1943 14.2533 12.3917 14.058C12.5684 13.8825 12.7853 13.6007 12.9821 13.3719C13.1784 13.1431 13.244 12.9798 13.3752 12.7186C13.5064 12.457 13.4408 12.2282 13.3424 12.0323C13.244 11.8364 12.4793 9.89892 12.1294 9.12424Z" fill="white"/>
<path d="M27.2054 4.59982C24.2318 1.63721 20.2777 0.00478436 16.0649 0.00292969C7.38378 0.00292969 0.319111 7.03427 0.315622 15.6768C0.314598 18.4394 1.03962 21.1361 2.4177 23.5132L0.183411 31.6356L8.53228 29.456C10.8326 30.7049 13.4225 31.3631 16.0582 31.3641H16.0648H16.0649C24.7446 31.3641 31.8103 24.3316 31.814 15.6894C31.8155 11.5009 30.1787 7.56264 27.2054 4.59982ZM16.0649 28.7168H16.0598C13.7105 28.7156 11.4067 28.0877 9.3973 26.9006L8.91907 26.6183L3.96469 27.9116L5.28743 23.1041L4.97586 22.6112C3.66542 20.5368 2.97362 18.1394 2.97464 15.6778C2.9775 8.49447 8.84938 2.65046 16.0699 2.65046C19.5664 2.65189 22.8527 4.00881 25.3243 6.47123C27.7958 8.93366 29.1558 12.2071 29.1548 15.6885C29.1517 22.872 23.2796 28.7168 16.0649 28.7168Z" fill="white"/>
</g>
<defs>
<linearGradient id="paint0_linear" x1="16.0001" y1="31.0884" x2="16.0001" y2="0.550832" gradientUnits="userSpaceOnUse">
<stop stop-color="#20B038"/>
<stop offset="1" stop-color="#60D66A"/>
</linearGradient>
<clipPath id="clip0">
<rect width="32" height="32" fill="white"/>
</clipPath>
</defs>
</svg>
